<?xml version="1.0" encoding="UTF-8" standalone="no"?>
<!DOCTYPE svg PUBLIC "-//W3C//DTD SVG 1.1//EN"
 "http://www.w3.org/Graphics/SVG/1.1/DTD/svg11.dtd">
<!-- Generated by graphviz version 2.40.1 (20161225.0304)
 -->
<!-- Title: G Pages: 1 -->
<svg width="696pt" height="1680pt"
 viewBox="0.00 0.00 696.00 1680.00" xmlns="http://www.w3.org/2000/svg" xmlns:xlink="http://www.w3.org/1999/xlink">
<g id="graph0" class="graph" transform="scale(1 1) rotate(0) translate(4 1676)">
<title>G</title>
<polygon fill="#ffffff" stroke="transparent" points="-4,4 -4,-1676 692,-1676 692,4 -4,4"/>
<g id="clust1" class="cluster">
<title>cluster_Global</title>
<path fill="none" stroke="#c0c0c0" d="M20,-44C20,-44 668,-44 668,-44 674,-44 680,-50 680,-56 680,-56 680,-1652 680,-1652 680,-1658 674,-1664 668,-1664 668,-1664 20,-1664 20,-1664 14,-1664 8,-1658 8,-1652 8,-1652 8,-56 8,-56 8,-50 14,-44 20,-44"/>
<text text-anchor="middle" x="344" y="-1651.2" font-family="Times,serif" font-size="11.00" fill="#c0c0c0">Global</text>
</g>
<g id="clust2" class="cluster">
<title>cluster_\Webhook</title>
<path fill="none" stroke="#c0c0c0" d="M28,-52C28,-52 660,-52 660,-52 666,-52 672,-58 672,-64 672,-64 672,-1624 672,-1624 672,-1630 666,-1636 660,-1636 660,-1636 28,-1636 28,-1636 22,-1636 16,-1630 16,-1624 16,-1624 16,-64 16,-64 16,-58 22,-52 28,-52"/>
<text text-anchor="middle" x="344" y="-1623.2" font-family="Times,serif" font-size="11.00" fill="#c0c0c0">Webhook</text>
</g>
<g id="clust3" class="cluster">
<title>cluster_\Webhook\PayloadData</title>
<path fill="none" stroke="#c0c0c0" d="M58.5,-780C58.5,-780 362,-780 362,-780 368,-780 374,-786 374,-792 374,-792 374,-1596 374,-1596 374,-1602 368,-1608 362,-1608 362,-1608 58.5,-1608 58.5,-1608 52.5,-1608 46.5,-1602 46.5,-1596 46.5,-1596 46.5,-792 46.5,-792 46.5,-786 52.5,-780 58.5,-780"/>
<text text-anchor="middle" x="210.25" y="-1595.2" font-family="Times,serif" font-size="11.00" fill="#c0c0c0">PayloadData</text>
</g>
<g id="clust4" class="cluster">
<title>cluster_\Webhook\Payload</title>
<path fill="none" stroke="#c0c0c0" d="M228.5,-592C228.5,-592 599,-592 599,-592 605,-592 611,-598 611,-604 611,-604 611,-760 611,-760 611,-766 605,-772 599,-772 599,-772 228.5,-772 228.5,-772 222.5,-772 216.5,-766 216.5,-760 216.5,-760 216.5,-604 216.5,-604 216.5,-598 222.5,-592 228.5,-592"/>
<text text-anchor="middle" x="413.75" y="-759.2" font-family="Times,serif" font-size="11.00" fill="#c0c0c0">Payload</text>
</g>
<!-- \\Webhook\\PayloadData\\GitUser -->
<g id="node1" class="node">
<title>\\Webhook\\PayloadData\\GitUser</title>
<polygon fill="none" stroke="#000000" points="118.5,-1203 54.5,-1203 54.5,-1167 118.5,-1167 118.5,-1203"/>
<text text-anchor="middle" x="86.5" y="-1182.2" font-family="Courier,monospace" font-size="11.00" fill="#000000">GitUser</text>
</g>
<!-- \\Webhook\\Populatable -->
<g id="node33" class="node">
<title>\\Webhook\\Populatable</title>
<polygon fill="none" stroke="#000000" points="132,-772 41,-772 41,-736 132,-736 132,-772"/>
<text text-anchor="middle" x="86.5" y="-751.2" font-family="Courier,monospace" font-size="11.00" fill="#000000">Populatable</text>
</g>
<!-- \\Webhook\\PayloadData\\GitUser&#45;&gt;\\Webhook\\Populatable -->
<g id="edge1" class="edge">
<title>\\Webhook\\PayloadData\\GitUser&#45;&gt;\\Webhook\\Populatable</title>
<path fill="none" stroke="#000000" stroke-dasharray="1,5" d="M86.5,-1166.8549C86.5,-1038.6105 86.5,-910.3661 86.5,-782.1217"/>
<polygon fill="none" stroke="#000000" points="90.0001,-782.0986 86.5,-772.0986 83.0001,-782.0987 90.0001,-782.0986"/>
</g>
<!-- \\Webhook\\PayloadData\\LastResponse -->
<g id="node2" class="node">
<title>\\Webhook\\PayloadData\\LastResponse</title>
<polygon fill="none" stroke="#000000" points="356,-1202 258,-1202 258,-1166 356,-1166 356,-1202"/>
<text text-anchor="middle" x="307" y="-1181.2" font-family="Courier,monospace" font-size="11.00" fill="#000000">LastResponse</text>
</g>
<!-- \\Webhook\\PayloadData\\LastResponse&#45;&gt;\\Webhook\\Populatable -->
<g id="edge3" class="edge">
<title>\\Webhook\\PayloadData\\LastResponse&#45;&gt;\\Webhook\\Populatable</title>
<path fill="none" stroke="#000000" stroke-dasharray="1,5" d="M257.881,-1179.4302C242.6399,-1175.6231 227.0836,-1168.8715 216.5,-1157 102.0615,-1028.6349 260.291,-907.1034 149,-776 146.6585,-773.2417 143.9489,-770.829 140.997,-768.7188"/>
<polygon fill="none" stroke="#000000" points="142.5395,-765.5662 132.1409,-763.5364 139.004,-771.6078 142.5395,-765.5662"/>
</g>
<!-- \\Webhook\\PayloadData\\HeadCommit -->
<g id="node3" class="node">
<title>\\Webhook\\PayloadData\\HeadCommit</title>
<polygon fill="none" stroke="#000000" points="349,-986 265,-986 265,-950 349,-950 349,-986"/>
<text text-anchor="middle" x="307" y="-965.2" font-family="Courier,monospace" font-size="11.00" fill="#000000">HeadCommit</text>
</g>
<!-- \\Webhook\\PayloadData\\HeadCommit&#45;&gt;\\Webhook\\Populatable -->
<g id="edge6" class="edge">
<title>\\Webhook\\PayloadData\\HeadCommit&#45;&gt;\\Webhook\\Populatable</title>
<path fill="none" stroke="#000000" stroke-dasharray="1,5" d="M264.8489,-963.387C248.1159,-959.6767 229.7434,-953.0006 216.5,-941 157.7871,-887.7969 206.405,-830.6117 149,-776 146.5831,-773.7007 143.9117,-771.6399 141.0745,-769.7933"/>
<polygon fill="none" stroke="#000000" points="142.6007,-766.638 132.1542,-764.871 139.2187,-772.7668 142.6007,-766.638"/>
</g>
<!-- \\Webhook\\PopulateListener -->
<g id="node34" class="node">
<title>\\Webhook\\PopulateListener</title>
<polygon fill="none" stroke="#000000" points="149,-718 24,-718 24,-682 149,-682 149,-718"/>
<text text-anchor="middle" x="86.5" y="-697.2" font-family="Courier,monospace" font-size="11.00" fill="#000000">PopulateListener</text>
</g>
<!-- \\Webhook\\PayloadData\\HeadCommit&#45;&gt;\\Webhook\\PopulateListener -->
<g id="edge7" class="edge">
<title>\\Webhook\\PayloadData\\HeadCommit&#45;&gt;\\Webhook\\PopulateListener</title>
<path fill="none" stroke="#000000" stroke-dasharray="1,5" d="M264.8089,-964.0178C247.8688,-960.4177 229.3523,-953.6533 216.5,-941 145.4319,-871.0325 215.8244,-801.0313 149,-727 148.2476,-726.1665 147.465,-725.3576 146.6554,-724.5727"/>
<polygon fill="none" stroke="#000000" points="148.6998,-721.7243 138.7302,-718.1385 144.2877,-727.1588 148.6998,-721.7243"/>
</g>
<!-- \\Webhook\\PayloadData\\Sender -->
<g id="node4" class="node">
<title>\\Webhook\\PayloadData\\Sender</title>
<polygon fill="none" stroke="#000000" points="335.5,-1148 278.5,-1148 278.5,-1112 335.5,-1112 335.5,-1148"/>
<text text-anchor="middle" x="307" y="-1127.2" font-family="Courier,monospace" font-size="11.00" fill="#000000">Sender</text>
</g>
<!-- \\Webhook\\PayloadData\\Sender&#45;&gt;\\Webhook\\Populatable -->
<g id="edge8" class="edge">
<title>\\Webhook\\PayloadData\\Sender&#45;&gt;\\Webhook\\Populatable</title>
<path fill="none" stroke="#000000" stroke-dasharray="1,5" d="M278.0799,-1128.8641C257.9933,-1126.4981 232.1263,-1120.0378 216.5,-1103 116.1953,-993.6348 246.6222,-887.7662 149,-776 146.6198,-773.275 143.8811,-770.8875 140.9077,-768.7957"/>
<polygon fill="none" stroke="#000000" points="142.4189,-765.6265 132.0103,-763.6488 138.9138,-771.6857 142.4189,-765.6265"/>
</g>
<!-- \\Webhook\\PayloadData\\Commit -->
<g id="node5" class="node">
<title>\\Webhook\\PayloadData\\Commit</title>
<polygon fill="none" stroke="#000000" points="335.5,-932 278.5,-932 278.5,-896 335.5,-896 335.5,-932"/>
<text text-anchor="middle" x="307" y="-911.2" font-family="Courier,monospace" font-size="11.00" fill="#000000">Commit</text>
</g>
<!-- \\Webhook\\PayloadData\\Commit&#45;&gt;\\Webhook\\Populatable -->
<g id="edge12" class="edge">
<title>\\Webhook\\PayloadData\\Commit&#45;&gt;\\Webhook\\Populatable</title>
<path fill="none" stroke="#000000" stroke-dasharray="1,5" d="M278.4601,-910.8891C259.3126,-907.5884 234.4139,-900.8224 216.5,-887 170.7873,-851.7278 193.8436,-812.3707 149,-776 146.5766,-774.0345 143.9651,-772.2385 141.2325,-770.5982"/>
<polygon fill="none" stroke="#000000" points="142.6601,-767.3953 132.1753,-765.8723 139.4218,-773.6013 142.6601,-767.3953"/>
</g>
<!-- \\Webhook\\PayloadData\\Commit&#45;&gt;\\Webhook\\PopulateListener -->
<g id="edge13" class="edge">
<title>\\Webhook\\PayloadData\\Commit&#45;&gt;\\Webhook\\PopulateListener</title>
<path fill="none" stroke="#000000" stroke-dasharray="1,5" d="M278.2036,-911.7678C258.6938,-908.864 233.4715,-902.2112 216.5,-887 159.0262,-835.4874 203.3405,-781.8079 149,-727 148.0638,-726.0557 147.0891,-725.1423 146.0812,-724.2588"/>
<polygon fill="none" stroke="#000000" points="147.8941,-721.244 137.7897,-718.0578 143.7017,-726.8498 147.8941,-721.244"/>
</g>
<!-- \\Webhook\\PayloadData\\RepositoryOwner -->
<g id="node6" class="node">
<title>\\Webhook\\PayloadData\\RepositoryOwner</title>
<polygon fill="none" stroke="#000000" points="366,-1526 248,-1526 248,-1490 366,-1490 366,-1526"/>
<text text-anchor="middle" x="307" y="-1505.2" font-family="Courier,monospace" font-size="11.00" fill="#000000">RepositoryOwner</text>
</g>
<!-- \\Webhook\\PayloadData\\RepositoryOwner&#45;&gt;\\Webhook\\Populatable -->
<g id="edge15" class="edge">
<title>\\Webhook\\PayloadData\\RepositoryOwner&#45;&gt;\\Webhook\\Populatable</title>
<path fill="none" stroke="#000000" stroke-dasharray="1,5" d="M247.8978,-1501.1618C235.9006,-1497.08 224.5183,-1490.7518 216.5,-1481 116.5436,-1359.4345 245.9781,-899.9544 149,-776 146.6653,-773.0159 143.8968,-770.4355 140.8447,-768.2043"/>
<polygon fill="none" stroke="#000000" points="142.5922,-765.1714 132.2065,-763.0763 139.0189,-771.1907 142.5922,-765.1714"/>
</g>
<!-- \\Webhook\\PayloadData\\CommitAuthor -->
<g id="node7" class="node">
<title>\\Webhook\\PayloadData\\CommitAuthor</title>
<polygon fill="none" stroke="#000000" points="356,-1580 258,-1580 258,-1544 356,-1544 356,-1580"/>
<text text-anchor="middle" x="307" y="-1559.2" font-family="Courier,monospace" font-size="11.00" fill="#000000">CommitAuthor</text>
</g>
<!-- \\Webhook\\PayloadData\\CommitAuthor&#45;&gt;\\Webhook\\PayloadData\\GitUser -->
<g id="edge19" class="edge">
<title>\\Webhook\\PayloadData\\CommitAuthor&#45;&gt;\\Webhook\\PayloadData\\GitUser</title>
<path fill="none" stroke="#000000" d="M257.6603,-1555.9031C242.9404,-1551.9729 227.7503,-1545.5344 216.5,-1535 121.033,-1445.6079 95.2971,-1279.7097 88.6775,-1213.4319"/>
<polygon fill="none" stroke="#000000" points="92.1483,-1212.9541 87.7409,-1203.3195 85.1781,-1213.5997 92.1483,-1212.9541"/>
</g>
<!-- \\Webhook\\PayloadData\\Repository -->
<g id="node8" class="node">
<title>\\Webhook\\PayloadData\\Repository</title>
<polygon fill="none" stroke="#000000" points="349,-1094 265,-1094 265,-1058 349,-1058 349,-1094"/>
<text text-anchor="middle" x="307" y="-1073.2" font-family="Courier,monospace" font-size="11.00" fill="#000000">Repository</text>
</g>
<!-- \\Webhook\\PayloadData\\Repository&#45;&gt;\\Webhook\\Populatable -->
<g id="edge20" class="edge">
<title>\\Webhook\\PayloadData\\Repository&#45;&gt;\\Webhook\\Populatable</title>
<path fill="none" stroke="#000000" stroke-dasharray="1,5" d="M264.8763,-1072.5032C247.742,-1068.9968 229.0596,-1062.1714 216.5,-1049 130.2465,-958.545 233.0339,-868.5207 149,-776 146.6073,-773.3656 143.88,-771.0466 140.9342,-769.0053"/>
<polygon fill="none" stroke="#000000" points="142.5633,-765.9048 132.1492,-763.9564 139.0752,-771.9739 142.5633,-765.9048"/>
</g>
<!-- \\Webhook\\PayloadData\\Repository&#45;&gt;\\Webhook\\PopulateListener -->
<g id="edge21" class="edge">
<title>\\Webhook\\PayloadData\\Repository&#45;&gt;\\Webhook\\PopulateListener</title>
<path fill="none" stroke="#000000" stroke-dasharray="1,5" d="M264.6478,-1072.7172C247.473,-1069.2488 228.8221,-1062.3938 216.5,-1049 117.5004,-941.3902 241.4905,-840.2532 149,-727 148.3949,-726.259 147.7655,-725.5379 147.1141,-724.8362"/>
<polygon fill="none" stroke="#000000" points="149.206,-722.0147 139.3873,-718.0342 144.5807,-727.2689 149.206,-722.0147"/>
</g>
<!-- \\Webhook\\PayloadData\\Organization -->
<g id="node9" class="node">
<title>\\Webhook\\PayloadData\\Organization</title>
<polygon fill="none" stroke="#000000" points="356,-1472 258,-1472 258,-1436 356,-1436 356,-1472"/>
<text text-anchor="middle" x="307" y="-1451.2" font-family="Courier,monospace" font-size="11.00" fill="#000000">Organization</text>
</g>
<!-- \\Webhook\\PayloadData\\Organization&#45;&gt;\\Webhook\\Populatable -->
<g id="edge22" class="edge">
<title>\\Webhook\\PayloadData\\Organization&#45;&gt;\\Webhook\\Populatable</title>
<path fill="none" stroke="#000000" stroke-dasharray="1,5" d="M257.8508,-1449.9781C242.4195,-1446.2274 226.7539,-1439.3712 216.5,-1427 30.8729,-1203.0438 329.1398,-1004.3931 149,-776 146.6536,-773.0251 143.8764,-770.4515 140.818,-768.2252"/>
<polygon fill="none" stroke="#000000" points="142.557,-765.1874 132.1686,-763.1062 138.9917,-771.2114 142.557,-765.1874"/>
</g>
<!-- \\Webhook\\PayloadData\\Hook -->
<g id="node10" class="node">
<title>\\Webhook\\PayloadData\\Hook</title>
<polygon fill="none" stroke="#000000" points="334,-1040 280,-1040 280,-1004 334,-1004 334,-1040"/>
<text text-anchor="middle" x="307" y="-1019.2" font-family="Courier,monospace" font-size="11.00" fill="#000000">Hook</text>
</g>
<!-- \\Webhook\\PayloadData\\Hook&#45;&gt;\\Webhook\\Populatable -->
<g id="edge23" class="edge">
<title>\\Webhook\\PayloadData\\Hook&#45;&gt;\\Webhook\\Populatable</title>
<path fill="none" stroke="#000000" stroke-dasharray="1,5" d="M279.8201,-1020.5613C259.8089,-1018.085 233.2704,-1011.6194 216.5,-995 144.155,-923.3064 219.5846,-849.4274 149,-776 146.6483,-773.5536 144.0086,-771.3788 141.1786,-769.4456"/>
<polygon fill="none" stroke="#000000" points="142.6368,-766.2483 132.2151,-764.3406 139.1725,-772.331 142.6368,-766.2483"/>
</g>
<!-- \\Webhook\\PayloadData\\Hook&#45;&gt;\\Webhook\\PopulateListener -->
<g id="edge24" class="edge">
<title>\\Webhook\\PayloadData\\Hook&#45;&gt;\\Webhook\\PopulateListener</title>
<path fill="none" stroke="#000000" stroke-dasharray="1,5" d="M279.9862,-1020.8578C259.7939,-1018.5518 232.944,-1012.1702 216.5,-995 131.5416,-906.2896 228.5867,-820.5596 149,-727 148.3801,-726.2713 147.737,-725.5617 147.0727,-724.8707"/>
<polygon fill="none" stroke="#000000" points="149.1101,-722.0073 139.2394,-718.1575 144.5549,-727.3224 149.1101,-722.0073"/>
</g>
<!-- \\Webhook\\PayloadData\\PingRepository -->
<g id="node11" class="node">
<title>\\Webhook\\PayloadData\\PingRepository</title>
<polygon fill="none" stroke="#000000" points="362.5,-1418 251.5,-1418 251.5,-1382 362.5,-1382 362.5,-1418"/>
<text text-anchor="middle" x="307" y="-1397.2" font-family="Courier,monospace" font-size="11.00" fill="#000000">PingRepository</text>
</g>
<!-- \\Webhook\\PayloadData\\PingRepository&#45;&gt;\\Webhook\\Populatable -->
<g id="edge25" class="edge">
<title>\\Webhook\\PayloadData\\PingRepository&#45;&gt;\\Webhook\\Populatable</title>
<path fill="none" stroke="#000000" stroke-dasharray="1,5" d="M251.3059,-1394.1182C238.12,-1390.101 225.3381,-1383.563 216.5,-1373 45.1484,-1168.2064 315.3333,-984.8899 149,-776 146.6398,-773.036 143.8524,-770.4705 140.7867,-768.2501"/>
<polygon fill="none" stroke="#000000" points="142.5156,-765.2064 132.1239,-763.1416 138.9598,-771.2361 142.5156,-765.2064"/>
</g>
<!-- \\Webhook\\PayloadData\\License -->
<g id="node12" class="node">
<title>\\Webhook\\PayloadData\\License</title>
<polygon fill="none" stroke="#000000" points="339,-1364 275,-1364 275,-1328 339,-1328 339,-1364"/>
<text text-anchor="middle" x="307" y="-1343.2" font-family="Courier,monospace" font-size="11.00" fill="#000000">License</text>
</g>
<!-- \\Webhook\\PayloadData\\License&#45;&gt;\\Webhook\\Populatable -->
<g id="edge26" class="edge">
<title>\\Webhook\\PayloadData\\License&#45;&gt;\\Webhook\\Populatable</title>
<path fill="none" stroke="#000000" stroke-dasharray="1,5" d="M274.5989,-1344.8759C254.8226,-1342.3835 230.6921,-1335.7721 216.5,-1319 59.4107,-1133.3532 301.5397,-965.4028 149,-776 146.6234,-773.0491 143.8238,-770.4934 140.7493,-768.28"/>
<polygon fill="none" stroke="#000000" points="142.4663,-765.2294 132.0708,-763.1841 138.9219,-771.2658 142.4663,-765.2294"/>
</g>
<!-- \\Webhook\\PayloadData\\HookConfig -->
<g id="node13" class="node">
<title>\\Webhook\\PayloadData\\HookConfig</title>
<polygon fill="none" stroke="#000000" points="349,-1310 265,-1310 265,-1274 349,-1274 349,-1310"/>
<text text-anchor="middle" x="307" y="-1289.2" font-family="Courier,monospace" font-size="11.00" fill="#000000">HookConfig</text>
</g>
<!-- \\Webhook\\PayloadData\\HookConfig&#45;&gt;\\Webhook\\Populatable -->
<g id="edge30" class="edge">
<title>\\Webhook\\PayloadData\\HookConfig&#45;&gt;\\Webhook\\Populatable</title>
<path fill="none" stroke="#000000" stroke-dasharray="1,5" d="M264.659,-1289.2122C247.2732,-1285.8483 228.4563,-1278.9381 216.5,-1265 73.6554,-1098.4791 287.7632,-945.9369 149,-776 146.6036,-773.0652 143.7892,-770.5214 140.7041,-768.3166"/>
<polygon fill="none" stroke="#000000" points="142.4066,-765.2578 132.0064,-763.2364 138.876,-771.3022 142.4066,-765.2578"/>
</g>
<!-- \\Webhook\\PayloadData\\Pusher -->
<g id="node14" class="node">
<title>\\Webhook\\PayloadData\\Pusher</title>
<polygon fill="none" stroke="#000000" points="335.5,-1256 278.5,-1256 278.5,-1220 335.5,-1220 335.5,-1256"/>
<text text-anchor="middle" x="307" y="-1235.2" font-family="Courier,monospace" font-size="11.00" fill="#000000">Pusher</text>
</g>
<!-- \\Webhook\\PayloadData\\Pusher&#45;&gt;\\Webhook\\Populatable -->
<g id="edge31" class="edge">
<title>\\Webhook\\PayloadData\\Pusher&#45;&gt;\\Webhook\\Populatable</title>
<path fill="none" stroke="#000000" stroke-dasharray="1,5" d="M278.2503,-1237.143C257.9773,-1234.9322 231.8066,-1228.5437 216.5,-1211 87.8758,-1063.5768 274.0102,-926.4999 149,-776 146.6882,-773.2168 144.0009,-770.7854 141.0655,-768.6613"/>
<polygon fill="none" stroke="#000000" points="142.6318,-765.5216 132.241,-763.4523 139.0734,-771.5498 142.6318,-765.5216"/>
</g>
<!-- \\Webhook\\PayloadData\\CommitTrait -->
<g id="node15" class="node">
<title>\\Webhook\\PayloadData\\CommitTrait</title>
<polygon fill="none" stroke="#000000" points="352.5,-878 261.5,-878 261.5,-842 352.5,-842 352.5,-878"/>
<text text-anchor="middle" x="307" y="-857.2" font-family="Courier,monospace" font-size="11.00" fill="#000000">CommitTrait</text>
</g>
<!-- \\Webhook\\PayloadData\\RepositoryTrait -->
<g id="node16" class="node">
<title>\\Webhook\\PayloadData\\RepositoryTrait</title>
<polygon fill="none" stroke="#000000" points="366,-824 248,-824 248,-788 366,-788 366,-824"/>
<text text-anchor="middle" x="307" y="-803.2" font-family="Courier,monospace" font-size="11.00" fill="#000000">RepositoryTrait</text>
</g>
<!-- \\Webhook\\Payload\\PingEvent -->
<g id="node17" class="node">
<title>\\Webhook\\Payload\\PingEvent</title>
<polygon fill="none" stroke="#000000" points="603,-690 526,-690 526,-654 603,-654 603,-690"/>
<text text-anchor="middle" x="564.5" y="-669.2" font-family="Courier,monospace" font-size="11.00" fill="#000000">PingEvent</text>
</g>
<!-- \\Webhook\\Payload -->
<g id="node31" class="node">
<title>\\Webhook\\Payload</title>
<polygon fill="none" stroke="#000000" points="349,-584 265,-584 265,-548 349,-548 349,-584"/>
<text text-anchor="start" x="273" y="-569.2" font-family="Courier,monospace" font-size="11.00" fill="#000000">«abstract»</text>
<text text-anchor="start" x="283" y="-557.2" font-family="Courier,monospace" font-size="11.00" fill="#000000">Payload</text>
</g>
<!-- \\Webhook\\Payload\\PingEvent&#45;&gt;\\Webhook\\Payload -->
<g id="edge4" class="edge">
<title>\\Webhook\\Payload\\PingEvent&#45;&gt;\\Webhook\\Payload</title>
<path fill="none" stroke="#000000" d="M525.8498,-665.3225C506.8531,-661.104 484.0161,-654.5952 465,-645 428.5619,-626.614 429.5707,-606.1208 393,-588 382.5331,-582.8137 370.7252,-578.7699 359.288,-575.6467"/>
<polygon fill="none" stroke="#000000" points="359.929,-572.1986 349.3755,-573.1335 358.2086,-578.9839 359.929,-572.1986"/>
</g>
<!-- \\Webhook\\Payload\\Event -->
<g id="node18" class="node">
<title>\\Webhook\\Payload\\Event</title>
<polygon fill="none" stroke="#000000" points="591.5,-744 537.5,-744 537.5,-708 591.5,-708 591.5,-744"/>
<text text-anchor="middle" x="564.5" y="-723.2" font-family="Courier,monospace" font-size="11.00" fill="#000000">Event</text>
</g>
<!-- \\Webhook\\Payload\\EventProviderInterface -->
<g id="node20" class="node">
<title>\\Webhook\\Payload\\EventProviderInterface</title>
<polygon fill="none" stroke="#000000" points="389.5,-744 224.5,-744 224.5,-708 389.5,-708 389.5,-744"/>
<text text-anchor="middle" x="307" y="-723.2" font-family="Courier,monospace" font-size="11.00" fill="#000000">EventProviderInterface</text>
</g>
<!-- \\Webhook\\Payload\\Event&#45;&gt;\\Webhook\\Payload\\EventProviderInterface -->
<g id="edge18" class="edge">
<title>\\Webhook\\Payload\\Event&#45;&gt;\\Webhook\\Payload\\EventProviderInterface</title>
<path fill="none" stroke="#000000" stroke-dasharray="1,5" d="M537.4297,-726C504.9413,-726 448.7376,-726 399.9722,-726"/>
<polygon fill="none" stroke="#000000" points="399.6903,-722.5001 389.6903,-726 399.6902,-729.5001 399.6903,-722.5001"/>
</g>
<!-- \\Webhook\\Payload\\Event&#45;&gt;\\Webhook\\Payload -->
<g id="edge17" class="edge">
<title>\\Webhook\\Payload\\Event&#45;&gt;\\Webhook\\Payload</title>
<path fill="none" stroke="#000000" d="M537.3072,-723.9165C515.9102,-721.1061 486.2577,-714.505 465,-699 417.4917,-664.3483 440.7589,-622.3055 393,-588 383.0256,-580.8353 370.9279,-575.9994 358.9953,-572.7366"/>
<polygon fill="none" stroke="#000000" points="359.6019,-569.2829 349.0609,-570.3494 357.9663,-576.0891 359.6019,-569.2829"/>
</g>
<!-- \\Webhook\\Payload\\PushEvent -->
<g id="node19" class="node">
<title>\\Webhook\\Payload\\PushEvent</title>
<polygon fill="none" stroke="#000000" points="603,-636 526,-636 526,-600 603,-600 603,-636"/>
<text text-anchor="middle" x="564.5" y="-615.2" font-family="Courier,monospace" font-size="11.00" fill="#000000">PushEvent</text>
</g>
<!-- \\Webhook\\Payload\\PushEvent&#45;&gt;\\Webhook\\Payload -->
<g id="edge29" class="edge">
<title>\\Webhook\\Payload\\PushEvent&#45;&gt;\\Webhook\\Payload</title>
<path fill="none" stroke="#000000" d="M525.9496,-610.2151C481.5845,-601.2559 408.504,-586.4979 359.1003,-576.5212"/>
<polygon fill="none" stroke="#000000" points="359.7388,-573.0796 349.2438,-574.5308 358.3531,-579.9411 359.7388,-573.0796"/>
</g>
<!-- \\Webhook\\MessageBodyInvalidException -->
<g id="node21" class="node">
<title>\\Webhook\\MessageBodyInvalidException</title>
<polygon fill="none" stroke="#000000" points="664,-204 465,-204 465,-168 664,-168 664,-204"/>
<text text-anchor="middle" x="564.5" y="-183.2" font-family="Courier,monospace" font-size="11.00" fill="#000000">MessageBodyInvalidException</text>
</g>
<!-- \\Webhook\\InvalidRequestException -->
<g id="node28" class="node">
<title>\\Webhook\\InvalidRequestException</title>
<polygon fill="none" stroke="#000000" points="393,-231 221,-231 221,-195 393,-195 393,-231"/>
<text text-anchor="middle" x="307" y="-210.2" font-family="Courier,monospace" font-size="11.00" fill="#000000">InvalidRequestException</text>
</g>
<!-- \\Webhook\\MessageBodyInvalidException&#45;&gt;\\Webhook\\InvalidRequestException -->
<g id="edge2" class="edge">
<title>\\Webhook\\MessageBodyInvalidException&#45;&gt;\\Webhook\\InvalidRequestException</title>
<path fill="none" stroke="#000000" d="M464.9438,-196.4389C444.7251,-198.5589 423.4926,-200.7852 403.3861,-202.8935"/>
<polygon fill="none" stroke="#000000" points="402.8824,-199.427 393.3019,-203.9509 403.6124,-206.3889 402.8824,-199.427"/>
</g>
<!-- \\Webhook\\CallbackRule -->
<g id="node22" class="node">
<title>\\Webhook\\CallbackRule</title>
<polygon fill="none" stroke="#000000" points="356,-529 258,-529 258,-493 356,-493 356,-529"/>
<text text-anchor="start" x="273" y="-514.2" font-family="Courier,monospace" font-size="11.00" fill="#000000">«abstract»</text>
<text text-anchor="start" x="266" y="-502.2" font-family="Courier,monospace" font-size="11.00" fill="#000000">CallbackRule</text>
</g>
<!-- \\Webhook\\SignatureMissingException -->
<g id="node23" class="node">
<title>\\Webhook\\SignatureMissingException</title>
<polygon fill="none" stroke="#000000" points="657,-150 472,-150 472,-114 657,-114 657,-150"/>
<text text-anchor="middle" x="564.5" y="-129.2" font-family="Courier,monospace" font-size="11.00" fill="#000000">SignatureMissingException</text>
</g>
<!-- \\Webhook\\SignatureMissingException&#45;&gt;\\Webhook\\InvalidRequestException -->
<g id="edge5" class="edge">
<title>\\Webhook\\SignatureMissingException&#45;&gt;\\Webhook\\InvalidRequestException</title>
<path fill="none" stroke="#000000" d="M495.8221,-150.0152C485.4624,-152.9121 474.9265,-155.9603 465,-159 432.3773,-168.9896 396.3549,-181.2077 366.9542,-191.4937"/>
<polygon fill="none" stroke="#000000" points="365.5267,-188.2854 357.2519,-194.9019 367.8467,-194.8898 365.5267,-188.2854"/>
</g>
<!-- \\Webhook\\Request -->
<g id="node24" class="node">
<title>\\Webhook\\Request</title>
<polygon fill="none" stroke="#000000" points="596.5,-474 532.5,-474 532.5,-438 596.5,-438 596.5,-474"/>
<text text-anchor="middle" x="564.5" y="-453.2" font-family="Courier,monospace" font-size="11.00" fill="#000000">Request</text>
</g>
<!-- \\Webhook\\EventCallbackRule -->
<g id="node25" class="node">
<title>\\Webhook\\EventCallbackRule</title>
<polygon fill="none" stroke="#000000" points="630,-528 499,-528 499,-492 630,-492 630,-528"/>
<text text-anchor="middle" x="564.5" y="-507.2" font-family="Courier,monospace" font-size="11.00" fill="#000000">EventCallbackRule</text>
</g>
<!-- \\Webhook\\EventCallbackRule&#45;&gt;\\Webhook\\CallbackRule -->
<g id="edge9" class="edge">
<title>\\Webhook\\EventCallbackRule&#45;&gt;\\Webhook\\CallbackRule</title>
<path fill="none" stroke="#000000" d="M498.8556,-510.2549C458.0077,-510.4136 405.9009,-510.6159 366.3018,-510.7697"/>
<polygon fill="none" stroke="#000000" points="366.247,-507.2698 356.2607,-510.8087 366.2743,-514.2697 366.247,-507.2698"/>
</g>
<!-- \\Webhook\\Callback -->
<g id="node26" class="node">
<title>\\Webhook\\Callback</title>
<polygon fill="none" stroke="#000000" points="600,-366 529,-366 529,-330 600,-330 600,-366"/>
<text text-anchor="middle" x="564.5" y="-345.2" font-family="Courier,monospace" font-size="11.00" fill="#000000">Callback</text>
</g>
<!-- \\Webhook\\InvalidRequest -->
<g id="node27" class="node">
<title>\\Webhook\\InvalidRequest</title>
<polygon fill="none" stroke="#000000" points="620,-420 509,-420 509,-384 620,-384 620,-420"/>
<text text-anchor="middle" x="564.5" y="-399.2" font-family="Courier,monospace" font-size="11.00" fill="#000000">InvalidRequest</text>
</g>
<!-- \\Webhook\\InvalidRequest&#45;&gt;\\Webhook\\InvalidRequestException -->
<g id="edge10" class="edge">
<title>\\Webhook\\InvalidRequest&#45;&gt;\\Webhook\\InvalidRequestException</title>
<path fill="none" stroke="#000000" d="M508.9568,-392.4836C494.0346,-388.4726 478.3473,-382.8462 465,-375 404.799,-339.6109 352.0253,-275.2651 325.3878,-239.2351"/>
<polygon fill="none" stroke="#000000" points="328.2118,-237.1673 319.4949,-231.1451 322.5537,-241.2888 328.2118,-237.1673"/>
</g>
<!-- \\Exception -->
<g id="node36" class="node">
<title>\\Exception</title>
<ellipse fill="none" stroke="#000000" cx="86.5" cy="-18" rx="48.9926" ry="18"/>
<text text-anchor="middle" x="86.5" y="-14.3" font-family="Times,serif" font-size="14.00" fill="#c0c0c0">\Exception</text>
</g>
<!-- \\Webhook\\InvalidRequestException&#45;&gt;\\Exception -->
<g id="edge11" class="edge">
<title>\\Webhook\\InvalidRequestException&#45;&gt;\\Exception</title>
<path fill="none" stroke="#000000" d="M293.2763,-194.8321C267.7939,-162.0613 210.1706,-92.3473 149,-48 142.9036,-43.5802 136.0541,-39.529 129.1839,-35.9301"/>
<polygon fill="none" stroke="#000000" points="130.3849,-32.619 119.8711,-31.3108 127.2744,-38.8899 130.3849,-32.619"/>
</g>
<!-- \\Webhook\\UrlCallbackRule -->
<g id="node29" class="node">
<title>\\Webhook\\UrlCallbackRule</title>
<polygon fill="none" stroke="#000000" points="623.5,-582 505.5,-582 505.5,-546 623.5,-546 623.5,-582"/>
<text text-anchor="middle" x="564.5" y="-561.2" font-family="Courier,monospace" font-size="11.00" fill="#000000">UrlCallbackRule</text>
</g>
<!-- \\Webhook\\UrlCallbackRule&#45;&gt;\\Webhook\\CallbackRule -->
<g id="edge14" class="edge">
<title>\\Webhook\\UrlCallbackRule&#45;&gt;\\Webhook\\CallbackRule</title>
<path fill="none" stroke="#000000" d="M505.4243,-551.8407C463.724,-543.2578 408.0695,-531.8027 366.3158,-523.2087"/>
<polygon fill="none" stroke="#000000" points="366.7872,-519.7324 356.2869,-521.1445 365.3759,-526.5887 366.7872,-519.7324"/>
</g>
<!-- \\Webhook\\SignatureInvalidException -->
<g id="node30" class="node">
<title>\\Webhook\\SignatureInvalidException</title>
<polygon fill="none" stroke="#000000" points="657,-312 472,-312 472,-276 657,-276 657,-312"/>
<text text-anchor="middle" x="564.5" y="-291.2" font-family="Courier,monospace" font-size="11.00" fill="#000000">SignatureInvalidException</text>
</g>
<!-- \\Webhook\\SignatureInvalidException&#45;&gt;\\Webhook\\InvalidRequestException -->
<g id="edge16" class="edge">
<title>\\Webhook\\SignatureInvalidException&#45;&gt;\\Webhook\\InvalidRequestException</title>
<path fill="none" stroke="#000000" d="M495.8221,-275.9848C485.4624,-273.0879 474.9265,-270.0397 465,-267 432.3773,-257.0104 396.3549,-244.7923 366.9542,-234.5063"/>
<polygon fill="none" stroke="#000000" points="367.8467,-231.1102 357.2519,-231.0981 365.5267,-237.7146 367.8467,-231.1102"/>
</g>
<!-- \\Webhook\\Payload&#45;&gt;\\Webhook\\Populatable -->
<g id="edge27" class="edge">
<title>\\Webhook\\Payload&#45;&gt;\\Webhook\\Populatable</title>
<path fill="none" stroke="#000000" stroke-dasharray="1,5" d="M264.8614,-568.5662C248.3252,-571.4102 230.0941,-577.0385 216.5,-588 163.0383,-631.1085 198.6251,-679.5253 149,-727 146.4898,-729.4015 143.7321,-731.6074 140.817,-733.631"/>
<polygon fill="none" stroke="#000000" points="138.9657,-730.6605 132.2591,-738.8624 142.6167,-736.633 138.9657,-730.6605"/>
</g>
<!-- \\Webhook\\Payload&#45;&gt;\\Webhook\\PopulateListener -->
<g id="edge28" class="edge">
<title>\\Webhook\\Payload&#45;&gt;\\Webhook\\PopulateListener</title>
<path fill="none" stroke="#000000" stroke-dasharray="1,5" d="M264.9902,-571.9267C249.1962,-575.2398 231.4559,-580.3121 216.5,-588 173.7604,-609.9696 133.2657,-648.7227 109.157,-674.3845"/>
<polygon fill="none" stroke="#000000" points="106.4329,-672.1753 102.2167,-681.8951 111.574,-676.926 106.4329,-672.1753"/>
</g>
<!-- \\Webhook\\EventMissingException -->
<g id="node32" class="node">
<title>\\Webhook\\EventMissingException</title>
<polygon fill="none" stroke="#000000" points="643.5,-258 485.5,-258 485.5,-222 643.5,-222 643.5,-258"/>
<text text-anchor="middle" x="564.5" y="-237.2" font-family="Courier,monospace" font-size="11.00" fill="#000000">EventMissingException</text>
</g>
<!-- \\Webhook\\EventMissingException&#45;&gt;\\Webhook\\InvalidRequestException -->
<g id="edge32" class="edge">
<title>\\Webhook\\EventMissingException&#45;&gt;\\Webhook\\InvalidRequestException</title>
<path fill="none" stroke="#000000" d="M485.4916,-231.7156C459.5355,-228.994 430.3923,-225.9382 403.2998,-223.0975"/>
<polygon fill="none" stroke="#000000" points="403.3381,-219.5824 393.0276,-222.0204 402.6081,-226.5442 403.3381,-219.5824"/>
</g>
<!-- \\Webhook\\PopulatorTrait -->
<g id="node35" class="node">
<title>\\Webhook\\PopulatorTrait</title>
<polygon fill="none" stroke="#000000" points="620,-96 509,-96 509,-60 620,-60 620,-96"/>
<text text-anchor="middle" x="564.5" y="-75.2" font-family="Courier,monospace" font-size="11.00" fill="#000000">PopulatorTrait</text>
</g>
</g>
</svg>
